# xmcd
#
# Track frame offsets:
#	150
#	14239
#	27475
#	38689
#	49499
#	62167
#	74765
#	84737
#	97591
#	107947
#	121559
#	132784
#	144526
#	156987
#	169219
#	183659
#	194249
#	205635
#	214975
#	228899
#	240763
#	252803
#	263404
#	273138
#
# Disc length: 3797 seconds
#
# Revision: 0
# Processed by: cddbd v1.5.2PL0 Copyright (c) Steve Scherf et al.
# Submitted via: EasyCDDAExtractor 15.3.0.1
#
DISCID=5b0ed318
DTITLE=Maddox Rose and Maddox Brothers - When The Sun Goes Down
DYEAR=1900
DGENRE=Country
TTITLE0=Tramp On The Street
TTITLE1=Flowers From The Master's Bouquet
TTITLE2=Hasty Baby
TTITLE3=When The Sun Goes Down
TTITLE4=Wedding Blues
TTITLE5=Sweet Little You
TTITLE6=Gonna Lay My Burden Down
TTITLE7=I'd Rather Die Young
TTITLE8=Cowboy Bugle Boy
TTITLE9=Rosalie By The Rio
TTITLE10=Nightingale Song
TTITLE11=Waltz Of The Pines
TTITLE12=Old Pal Of Yesterdays
TTITLE13=I'll Still Write Your Name In The Sand
TTITLE14=Unclouded Day
TTITLE15=I'll Be No Stranger There
TTITLE16=Hummingbird
TTITLE17=I'd Rather Have Jesus
TTITLE18=In A Land Where We Never Grow Old
TTITLE19=Baby You Should Live So Long
TTITLE20=There's No Right Way To Do Me Wrong
TTITLE21=Just When I Needed You
TTITLE22=Don't Let Your Sweet Love Die
TTITLE23=Bring It On Down To My House Honey
EXTD=
EXTT0=
EXTT1=
EXTT2=
EXTT3=
EXTT4=
EXTT5=
EXTT6=
EXTT7=
EXTT8=
EXTT9=
EXTT10=
EXTT11=
EXTT12=
EXTT13=
EXTT14=
EXTT15=
EXTT16=
EXTT17=
EXTT18=
EXTT19=
EXTT20=
EXTT21=
EXTT22=
EXTT23=
PLAYORDER=
